HIERARCHY
ROOT Hips
{
	OFFSET 0.000000 0.000000 0.000000
	CHANNELS 6 Xposition Yposition Zposition Xrotation Yrotation Zrotation
	JOINT LeftUpLeg_virtual
	{
		OFFSET 0.000000 0.000000 0.000000
		CHANNELS 3 Xrotation Yrotation Zrotation
		JOINT LeftUpLeg
		{
			OFFSET 10.205400 -3.823500 0.155100
			CHANNELS 3 Xrotation Yrotation Zrotation
			JOINT LeftLeg
			{
				OFFSET 0.708757 -12.982077 0.567790
				CHANNELS 3 Xrotation Yrotation Zrotation
				JOINT LeftFoot
				{
					OFFSET -0.708756 -10.717838 -2.184338
					CHANNELS 3 Xrotation Yrotation Zrotation
					JOINT LeftToeBase
					{
						OFFSET 0.108149 -7.191104 7.560241
						CHANNELS 3 Xrotation Yrotation Zrotation
						JOINT LeftToe_End
						{
							OFFSET 0.070230 0.081724 4.490308
							CHANNELS 3 Xrotation Yrotation Zrotation
							End Site
							{
								OFFSET 0 0 0
							}
						}
					}
				}
			}
		}
	}
	JOINT RightUpLeg_virtual
	{
		OFFSET 0.000000 0.000000 0.000000
		CHANNELS 3 Xrotation Yrotation Zrotation
		JOINT RightUpLeg
		{
			OFFSET -10.205400 -3.823500 0.005500
			CHANNELS 3 Xrotation Yrotation Zrotation
			JOINT RightLeg
			{
				OFFSET -0.708756 -12.982134 0.610632
				CHANNELS 3 Xrotation Yrotation Zrotation
				JOINT RightFoot
				{
					OFFSET 0.708754 -10.717769 -1.945823
					CHANNELS 3 Xrotation Yrotation Zrotation
					JOINT RightToeBase
					{
						OFFSET -0.108140 -7.191069 7.372968
						CHANNELS 3 Xrotation Yrotation Zrotation
						JOINT RightToe_End
						{
							OFFSET -0.070227 0.081735 4.479403
							CHANNELS 3 Xrotation Yrotation Zrotation
							End Site
							{
								OFFSET 0 0 0
							}
						}
					}
				}
			}
		}
	}
	JOINT Spine_virtual
	{
		OFFSET 0.000000 0.000000 0.000000
		CHANNELS 3 Xrotation Yrotation Zrotation
		JOINT Spine
		{
			OFFSET 0.000000 6.876099 0.125700
			CHANNELS 3 Xrotation Yrotation Zrotation
			JOINT Spine1
			{
				OFFSET 0.000000 5.730043 0.104720
				CHANNELS 3 Xrotation Yrotation Zrotation
				JOINT Spine1_split
				{
					OFFSET 0.000000 5.730043 0.104720
					CHANNELS 3 Xrotation Yrotation Zrotation
					JOINT Spine2
					{
						OFFSET 0.000000 5.730043 0.104720
						CHANNELS 3 Xrotation Yrotation Zrotation
						JOINT Neck_virtual
						{
							OFFSET 0.000000 0.000000 0.000000
							CHANNELS 3 Xrotation Yrotation Zrotation
							JOINT Neck
							{
								OFFSET 0.000000 10.314075 0.188496
								CHANNELS 3 Xrotation Yrotation Zrotation
								JOINT Head
								{
									OFFSET 0.000000 7.643700 -2.377400
									CHANNELS 3 Xrotation Yrotation Zrotation
									JOINT HeadTop_End
									{
										OFFSET 0.000000 43.788605 -13.619600
										CHANNELS 3 Xrotation Yrotation Zrotation
										End Site
										{
											OFFSET 0 0 0
										}
									}
								}
							}
						}
						JOINT LeftShoulder_virtual
						{
							OFFSET 0.000000 0.000000 0.000000
							CHANNELS 3 Xrotation Yrotation Zrotation
							JOINT LeftShoulder
							{
								OFFSET 2.196100 4.412489 0.087492
								CHANNELS 3 Xrotation Yrotation Zrotation
								JOINT LeftShoulder_split
								{
									OFFSET 2.196100 4.412489 0.087492
									CHANNELS 3 Xrotation Yrotation Zrotation
									JOINT LeftArm
									{
										OFFSET 8.771219 -2.981674 -0.026999
										CHANNELS 3 Xrotation Yrotation Zrotation
										JOINT LeftForeArm
										{
											OFFSET 8.512804 0.000000 -0.000000
											CHANNELS 3 Xrotation Yrotation Zrotation
											JOINT LeftHand
											{
												OFFSET 18.484802 0.000000 -0.000000
												CHANNELS 3 Xrotation Yrotation Zrotation
												End Site
												{
													OFFSET 0 0 0
												}
											}
										}
									}
								}
							}
						}
						JOINT RightShoulder_virtual
						{
							OFFSET 0.000000 0.000000 0.000000
							CHANNELS 3 Xrotation Yrotation Zrotation
							JOINT RightShoulder
							{
								OFFSET -2.196100 4.412496 0.070690
								CHANNELS 3 Xrotation Yrotation Zrotation
								JOINT RightShoulder_split
								{
									OFFSET -2.196100 4.412496 0.070690
									CHANNELS 3 Xrotation Yrotation Zrotation
									JOINT RightArm
									{
										OFFSET -8.771282 -2.981682 -0.094208
										CHANNELS 3 Xrotation Yrotation Zrotation
										JOINT RightForeArm
										{
											OFFSET -8.494598 0.000000 0.000000
											CHANNELS 3 Xrotation Yrotation Zrotation
											JOINT RightHand
											{
												OFFSET -18.483803 0.000000 0.000001
												CHANNELS 3 Xrotation Yrotation Zrotation
												End Site
												{
													OFFSET 0 0 0
												}
											}
										}
									}
								}
							}
						}
					}
				}
			}
		}
	}
}
MOTION
Frames: 4
Frame Time: 0.03333333
4.462179 30.751648 -7.813110 0.000000 0.000000 0.000000 8.729412 14.633972 -0.789676 2.567071 10.076001 10.928080 44.862185 -4.416939 5.076905 -13.230785 -6.997667 -23.960809 -17.095231 0.114824 -2.253748 0.000000 0.000000 0.000000 8.198574 12.319788 -0.545154 -40.258781 -8.989834 -6.845426 46.945724 0.710359 1.187361 -14.272730 2.241695 -1.181985 -1.895846 1.169785 -0.772367 0.000000 0.000000 0.000000 8.875387 11.772122 -0.257405 0.980085 -2.966951 -1.175995 2.619248 -1.623830 1.883572 -1.121561 1.175310 0.103710 0.000000 0.000000 0.000000 2.758921 -2.612001 2.210912 -4.106273 3.018745 0.856481 -12.017626 4.723615 8.189932 0.000000 0.000000 0.000000 1.132121 -1.794018 2.402151 0.939470 1.764467 -0.942011 4.247454 -5.990916 7.131770 -43.771585 -7.503815 -37.398332 173.599735 -63.422637 173.855143 0.000000 0.000000 0.000000 1.473345 -2.870973 1.749217 -0.763477 -18.967280 6.919950 -0.077671 8.915601 -4.320882 -35.530501 9.277564 55.650653 -173.000536 62.621968 174.568338 0.000000 0.000000 0.000000 
4.669007 31.532360 -8.268372 0.000000 0.000000 0.000000 11.289885 16.211852 -2.143295 -10.870311 8.105653 15.723242 58.707791 -4.665974 3.886108 -3.204796 -8.733042 -21.173906 -7.917859 0.275023 -4.892110 0.000000 0.000000 0.000000 9.376420 12.483550 -1.281626 -37.694083 -10.397294 -5.827437 44.072397 1.716677 1.461401 -14.657386 2.189512 -0.369699 -5.588629 0.705829 -1.482756 0.000000 0.000000 0.000000 10.322934 11.370877 -0.923127 5.121790 -2.371755 -0.814208 2.702098 -1.171142 0.886127 0.300150 1.375534 0.011618 0.000000 0.000000 0.000000 2.733615 -2.188134 1.554325 -5.208386 2.657211 -1.091713 -15.851242 2.039993 9.709621 0.000000 0.000000 0.000000 1.322227 -1.380834 1.606025 1.095318 0.717512 10.491928 4.340820 -3.253268 2.840715 -59.857722 -6.389052 -35.898965 173.261928 -67.886521 172.853414 0.000000 0.000000 0.000000 1.666807 -2.182779 0.925551 -2.572533 -18.034630 -0.903199 0.729584 6.503799 -4.550101 -53.639262 3.682858 58.603385 -173.087075 66.121053 173.842453 0.000000 0.000000 0.000000 
4.771864 32.084389 -8.397573 0.000000 0.000000 0.000000 13.288721 15.764439 -2.611659 -23.898147 7.237228 19.418259 70.743848 -2.991167 1.318022 4.468079 -6.973462 -12.526532 0.865381 0.001313 -7.145667 0.000000 0.000000 0.000000 10.715503 11.888456 -1.640214 -35.697929 -11.253658 -5.810397 42.456511 0.831106 2.268446 -15.594548 1.717746 -1.717570 -9.397241 -0.146865 -1.488326 0.000000 0.000000 0.000000 11.870053 10.090403 -1.045659 8.451984 -1.740615 -1.191885 3.145012 -0.754413 0.088732 1.584440 1.452023 -0.071866 0.000000 0.000000 0.000000 3.249821 -1.716235 1.066862 -6.368036 2.359925 -2.712264 -19.891838 -0.188891 10.895014 0.000000 0.000000 0.000000 1.981890 -1.032845 0.948392 1.276687 0.219013 20.908862 4.257632 -0.074092 -0.263622 -72.430830 -5.939447 -31.913731 169.603337 -75.797731 168.943226 0.000000 0.000000 0.000000 2.446276 -1.524089 0.215544 -4.127360 -16.379581 -8.993945 1.504494 3.267970 -4.318039 -66.748584 -3.118358 57.783680 -174.188716 70.084585 173.439731 0.000000 0.000000 0.000000 
4.793604 32.485229 -8.395138 0.000000 0.000000 0.000000 14.508575 13.389571 -1.971787 -35.287967 7.929494 21.230852 78.898479 -0.786371 -1.678914 8.627196 -3.292362 -1.824765 3.962007 -0.324444 -7.198080 0.000000 0.000000 0.000000 12.143114 9.973479 -1.390238 -34.822794 -11.473374 -7.081143 41.122943 -1.221226 3.514784 -15.355688 1.074427 -3.818875 -12.584427 -1.160330 -0.910069 0.000000 0.000000 0.000000 13.295921 8.169305 -0.618522 10.282060 -1.232246 -2.131350 3.775585 -0.445732 -0.282505 1.620401 0.929531 0.336864 0.000000 0.000000 0.000000 4.085274 -1.259414 0.928582 -7.431873 2.158109 -3.464074 -23.140684 -1.627619 11.740153 0.000000 0.000000 0.000000 2.853032 -0.764652 0.714143 1.201713 0.511137 28.132183 3.849333 2.483205 -3.107897 -79.833116 -6.400729 -27.416248 157.128160 -83.341272 156.915974 0.000000 0.000000 0.000000 3.518950 -1.075275 -0.181021 -4.946131 -14.348342 -15.309218 1.946931 0.513728 -3.094366 -72.451156 -8.152338 55.002188 -176.560991 73.518626 173.995927 0.000000 0.000000 0.000000 
